<svg width="332" height="453" viewBox="0 0 332 453" fill="none" xmlns="http://www.w3.org/2000/svg">
<g clip-path="url(#clip0_1_3)">
<rect width="332" height="453" fill="white"/>
<circle cx="52.5" cy="215.5" r="167.5" fill="#6C83FE"/>
<circle cx="52.5" cy="215.5" r="156.5" fill="#F3FF6F"/>
<circle cx="34.5" cy="215.5" r="123.5" fill="#FF6F6F"/>
<rect x="-185" y="-21" width="219" height="458" fill="white"/>
<ellipse cx="120.797" cy="147.479" rx="47.4721" ry="26.8625" transform="rotate(-20 120.797 147.479)" fill="#C4C4C4"/>
<ellipse cx="125.797" cy="271.479" rx="47.4721" ry="26.8625" transform="rotate(20 125.797 271.479)" fill="#C4C4C4"/>
<path d="M58.5611 216.424C58.7952 217.218 59.6291 217.673 60.4238 217.439L73.3737 213.625C74.1684 213.39 74.6229 212.557 74.3888 211.762C74.1547 210.967 73.3208 210.513 72.5261 210.747L61.0151 214.137L57.6245 202.626C57.3905 201.832 56.5565 201.377 55.7618 201.611C54.9672 201.845 54.5127 202.679 54.7468 203.474L58.5611 216.424ZM155.683 37.2822L58.6829 215.282L61.3171 216.718L158.317 38.7178L155.683 37.2822Z" fill="black"/>
<path d="M150.321 28V17.0909H154.007C154.863 17.0909 155.563 17.2454 156.106 17.5543C156.653 17.8597 157.058 18.2734 157.32 18.7955C157.583 19.3175 157.714 19.8999 157.714 20.5426C157.714 21.1854 157.583 21.7695 157.32 22.2951C157.061 22.8207 156.66 23.2397 156.116 23.5522C155.573 23.8612 154.877 24.0156 154.028 24.0156H151.386V22.8438H153.986C154.572 22.8438 155.042 22.7425 155.397 22.5401C155.752 22.3377 156.01 22.0643 156.17 21.7198C156.333 21.3718 156.415 20.9794 156.415 20.5426C156.415 20.1058 156.333 19.7152 156.17 19.3707C156.01 19.0263 155.751 18.7564 155.392 18.5611C155.033 18.3622 154.558 18.2628 153.964 18.2628H151.642V28H150.321ZM159.672 28V19.8182H160.929V28H159.672ZM160.311 18.4545C160.066 18.4545 159.855 18.3711 159.677 18.2042C159.503 18.0373 159.416 17.8366 159.416 17.6023C159.416 17.3679 159.503 17.1673 159.677 17.0004C159.855 16.8335 160.066 16.75 160.311 16.75C160.556 16.75 160.766 16.8335 160.94 17.0004C161.117 17.1673 161.206 17.3679 161.206 17.6023C161.206 17.8366 161.117 18.0373 160.94 18.2042C160.766 18.3711 160.556 18.4545 160.311 18.4545ZM166.79 19.8182V20.8835H162.55V19.8182H166.79ZM163.786 17.858H165.043V25.6562C165.043 26.0114 165.094 26.2777 165.197 26.4553C165.304 26.6293 165.439 26.7464 165.602 26.8068C165.769 26.8636 165.945 26.892 166.129 26.892C166.268 26.892 166.381 26.8849 166.47 26.8707C166.559 26.853 166.63 26.8388 166.683 26.8281L166.939 27.9574C166.854 27.9893 166.735 28.0213 166.582 28.0533C166.429 28.0888 166.236 28.1065 166.002 28.1065C165.646 28.1065 165.298 28.0302 164.957 27.8775C164.62 27.7248 164.34 27.4922 164.116 27.1797C163.896 26.8672 163.786 26.473 163.786 25.9972V17.858ZM170.114 23.0781V28H168.857V17.0909H170.114V21.0966H170.22C170.412 20.674 170.7 20.3384 171.083 20.0898C171.47 19.8377 171.985 19.7116 172.628 19.7116C173.185 19.7116 173.674 19.8235 174.093 20.0472C174.512 20.2674 174.837 20.6065 175.068 21.0646C175.302 21.5192 175.419 22.098 175.419 22.8011V28H174.162V22.8864C174.162 22.2365 173.993 21.734 173.656 21.3789C173.322 21.0202 172.859 20.8409 172.266 20.8409C171.854 20.8409 171.484 20.9279 171.158 21.1019C170.835 21.2759 170.579 21.5298 170.391 21.8636C170.206 22.1974 170.114 22.6023 170.114 23.0781Z" fill="black"/>
<path d="M209.099 44.5H207.778C207.7 44.12 207.564 43.7862 207.368 43.4986C207.176 43.2109 206.942 42.9695 206.665 42.7741C206.392 42.5753 206.088 42.4261 205.754 42.3267C205.42 42.2273 205.072 42.1776 204.71 42.1776C204.05 42.1776 203.451 42.3445 202.915 42.6783C202.382 43.0121 201.958 43.5039 201.642 44.1538C201.33 44.8036 201.173 45.6009 201.173 46.5455C201.173 47.4901 201.33 48.2873 201.642 48.9371C201.958 49.587 202.382 50.0788 202.915 50.4126C203.451 50.7464 204.05 50.9134 204.71 50.9134C205.072 50.9134 205.42 50.8636 205.754 50.7642C206.088 50.6648 206.392 50.5174 206.665 50.3221C206.942 50.1232 207.176 49.88 207.368 49.5923C207.564 49.3011 207.7 48.9673 207.778 48.5909H209.099C209 49.1484 208.819 49.6474 208.556 50.0877C208.293 50.5281 207.967 50.9027 207.576 51.2116C207.185 51.517 206.747 51.7496 206.26 51.9094C205.777 52.0692 205.261 52.1491 204.71 52.1491C203.78 52.1491 202.952 51.9219 202.228 51.4673C201.504 51.0128 200.934 50.3665 200.518 49.5284C200.103 48.6903 199.895 47.696 199.895 46.5455C199.895 45.3949 200.103 44.4006 200.518 43.5625C200.934 42.7244 201.504 42.0781 202.228 41.6236C202.952 41.169 203.78 40.9418 204.71 40.9418C205.261 40.9418 205.777 41.0217 206.26 41.1815C206.747 41.3413 207.185 41.5756 207.576 41.8846C207.967 42.19 208.293 42.5629 208.556 43.0032C208.819 43.44 209 43.9389 209.099 44.5ZM214.388 52.1705C213.649 52.1705 213.001 51.9947 212.443 51.6431C211.889 51.2915 211.456 50.7997 211.144 50.1676C210.835 49.5355 210.68 48.7969 210.68 47.9517C210.68 47.0994 210.835 46.3555 211.144 45.7198C211.456 45.0842 211.889 44.5906 212.443 44.239C213.001 43.8874 213.649 43.7116 214.388 43.7116C215.126 43.7116 215.772 43.8874 216.326 44.239C216.884 44.5906 217.317 45.0842 217.626 45.7198C217.939 46.3555 218.095 47.0994 218.095 47.9517C218.095 48.7969 217.939 49.5355 217.626 50.1676C217.317 50.7997 216.884 51.2915 216.326 51.6431C215.772 51.9947 215.126 52.1705 214.388 52.1705ZM214.388 51.0412C214.949 51.0412 215.41 50.8974 215.772 50.6097C216.135 50.3221 216.403 49.9439 216.577 49.4751C216.751 49.0064 216.838 48.4986 216.838 47.9517C216.838 47.4048 216.751 46.8952 216.577 46.4229C216.403 45.9506 216.135 45.5689 215.772 45.2777C215.41 44.9865 214.949 44.8409 214.388 44.8409C213.826 44.8409 213.365 44.9865 213.003 45.2777C212.64 45.5689 212.372 45.9506 212.198 46.4229C212.024 46.8952 211.937 47.4048 211.937 47.9517C211.937 48.4986 212.024 49.0064 212.198 49.4751C212.372 49.9439 212.64 50.3221 213.003 50.6097C213.365 50.8974 213.826 51.0412 214.388 51.0412ZM220.014 52V43.8182H221.228V45.054H221.314C221.463 44.6491 221.733 44.3207 222.123 44.0685C222.514 43.8164 222.954 43.6903 223.444 43.6903C223.537 43.6903 223.652 43.6921 223.79 43.6957C223.929 43.6992 224.034 43.7045 224.105 43.7116V44.9901C224.062 44.9794 223.964 44.9634 223.812 44.9421C223.663 44.9173 223.505 44.9048 223.338 44.9048C222.94 44.9048 222.585 44.9883 222.272 45.1552C221.963 45.3185 221.718 45.5458 221.537 45.837C221.36 46.1246 221.271 46.4531 221.271 46.8224V52H220.014ZM229.666 43.8182V44.8835H225.426V43.8182H229.666ZM226.662 41.858H227.919V49.6562C227.919 50.0114 227.97 50.2777 228.073 50.4553C228.18 50.6293 228.315 50.7464 228.478 50.8068C228.645 50.8636 228.821 50.892 229.005 50.892C229.144 50.892 229.257 50.8849 229.346 50.8707C229.435 50.853 229.506 50.8388 229.559 50.8281L229.815 51.9574C229.73 51.9893 229.611 52.0213 229.458 52.0533C229.305 52.0888 229.112 52.1065 228.877 52.1065C228.522 52.1065 228.174 52.0302 227.833 51.8775C227.496 51.7248 227.216 51.4922 226.992 51.1797C226.772 50.8672 226.662 50.473 226.662 49.9972V41.858ZM234.899 52.1705C234.111 52.1705 233.431 51.9964 232.859 51.6484C232.291 51.2969 231.852 50.8068 231.544 50.1783C231.238 49.5462 231.085 48.8111 231.085 47.973C231.085 47.1349 231.238 46.3963 231.544 45.7571C231.852 45.1143 232.282 44.6136 232.833 44.255C233.387 43.8928 234.033 43.7116 234.771 43.7116C235.198 43.7116 235.618 43.7827 236.034 43.9247C236.449 44.0668 236.828 44.2976 237.169 44.6172C237.509 44.9332 237.781 45.3523 237.983 45.8743C238.186 46.3963 238.287 47.0391 238.287 47.8026V48.3352H231.98V47.2486H237.009C237.009 46.7869 236.916 46.375 236.732 46.0128C236.551 45.6506 236.291 45.3647 235.954 45.1552C235.62 44.9457 235.226 44.8409 234.771 44.8409C234.271 44.8409 233.838 44.9652 233.472 45.2138C233.11 45.4588 232.831 45.7784 232.635 46.1726C232.44 46.5668 232.343 46.9893 232.343 47.4403V48.1648C232.343 48.7827 232.449 49.3065 232.662 49.7362C232.879 50.1623 233.179 50.4872 233.562 50.7109C233.946 50.9311 234.392 51.0412 234.899 51.0412C235.23 51.0412 235.528 50.995 235.794 50.9027C236.064 50.8068 236.297 50.6648 236.492 50.4766C236.687 50.2848 236.838 50.0469 236.945 49.7628L238.159 50.1037C238.031 50.5156 237.817 50.8778 237.515 51.1903C237.213 51.4993 236.84 51.7408 236.396 51.9148C235.952 52.0852 235.453 52.1705 234.899 52.1705ZM240.917 43.8182L242.877 47.1634L244.838 43.8182H246.286L243.644 47.9091L246.286 52H244.838L242.877 48.8253L240.917 52H239.468L242.068 47.9091L239.468 43.8182H240.917Z" fill="black"/>
<path d="M229.321 113V102.091H235.905V103.263H230.642V106.949H235.564V108.121H230.642V111.828H235.99V113H229.321ZM238.115 116.068V104.818H239.33V106.118H239.479C239.571 105.976 239.699 105.795 239.863 105.575C240.029 105.351 240.267 105.152 240.576 104.978C240.889 104.8 241.311 104.712 241.844 104.712C242.533 104.712 243.14 104.884 243.666 105.228C244.191 105.573 244.602 106.061 244.896 106.693C245.191 107.325 245.338 108.071 245.338 108.93C245.338 109.797 245.191 110.548 244.896 111.184C244.602 111.816 244.193 112.306 243.671 112.654C243.149 112.998 242.547 113.17 241.865 113.17C241.34 113.17 240.919 113.083 240.603 112.909C240.287 112.732 240.044 112.531 239.873 112.308C239.703 112.08 239.571 111.892 239.479 111.743H239.373V116.068H238.115ZM239.351 108.909C239.351 109.527 239.442 110.072 239.623 110.544C239.804 111.013 240.069 111.381 240.417 111.647C240.765 111.91 241.191 112.041 241.695 112.041C242.221 112.041 242.659 111.903 243.011 111.626C243.366 111.345 243.632 110.969 243.81 110.496C243.991 110.021 244.081 109.491 244.081 108.909C244.081 108.334 243.993 107.815 243.815 107.354C243.641 106.888 243.376 106.521 243.021 106.251C242.67 105.978 242.228 105.841 241.695 105.841C241.184 105.841 240.754 105.971 240.406 106.23C240.058 106.485 239.795 106.844 239.618 107.306C239.44 107.764 239.351 108.298 239.351 108.909ZM247.256 113V104.818H248.513V113H247.256ZM247.895 103.455C247.65 103.455 247.439 103.371 247.261 103.204C247.087 103.037 247 102.837 247 102.602C247 102.368 247.087 102.167 247.261 102C247.439 101.833 247.65 101.75 247.895 101.75C248.14 101.75 248.35 101.833 248.524 102C248.701 102.167 248.79 102.368 248.79 102.602C248.79 102.837 248.701 103.037 248.524 103.204C248.35 103.371 248.14 103.455 247.895 103.455ZM253.905 113.17C253.223 113.17 252.621 112.998 252.099 112.654C251.577 112.306 251.169 111.816 250.874 111.184C250.579 110.548 250.432 109.797 250.432 108.93C250.432 108.071 250.579 107.325 250.874 106.693C251.169 106.061 251.579 105.573 252.105 105.228C252.63 104.884 253.237 104.712 253.926 104.712C254.459 104.712 254.88 104.8 255.189 104.978C255.501 105.152 255.739 105.351 255.903 105.575C256.07 105.795 256.199 105.976 256.291 106.118H256.398V102.091H257.655V113H256.441V111.743H256.291C256.199 111.892 256.068 112.08 255.897 112.308C255.727 112.531 255.484 112.732 255.168 112.909C254.851 113.083 254.431 113.17 253.905 113.17ZM254.076 112.041C254.58 112.041 255.006 111.91 255.354 111.647C255.702 111.381 255.967 111.013 256.148 110.544C256.329 110.072 256.419 109.527 256.419 108.909C256.419 108.298 256.331 107.764 256.153 107.306C255.975 106.844 255.713 106.485 255.365 106.23C255.017 105.971 254.587 105.841 254.076 105.841C253.543 105.841 253.099 105.978 252.744 106.251C252.392 106.521 252.128 106.888 251.95 107.354C251.776 107.815 251.689 108.334 251.689 108.909C251.689 109.491 251.778 110.021 251.956 110.496C252.137 110.969 252.403 111.345 252.755 111.626C253.11 111.903 253.55 112.041 254.076 112.041ZM263.562 113.17C262.774 113.17 262.094 112.996 261.522 112.648C260.954 112.297 260.516 111.807 260.207 111.178C259.901 110.546 259.748 109.811 259.748 108.973C259.748 108.135 259.901 107.396 260.207 106.757C260.516 106.114 260.945 105.614 261.496 105.255C262.05 104.893 262.696 104.712 263.435 104.712C263.861 104.712 264.282 104.783 264.697 104.925C265.112 105.067 265.491 105.298 265.832 105.617C266.172 105.933 266.444 106.352 266.647 106.874C266.849 107.396 266.95 108.039 266.95 108.803V109.335H260.643V108.249H265.672C265.672 107.787 265.579 107.375 265.395 107.013C265.214 106.651 264.954 106.365 264.617 106.155C264.283 105.946 263.889 105.841 263.435 105.841C262.934 105.841 262.501 105.965 262.135 106.214C261.773 106.459 261.494 106.778 261.299 107.173C261.103 107.567 261.006 107.989 261.006 108.44V109.165C261.006 109.783 261.112 110.306 261.325 110.736C261.542 111.162 261.842 111.487 262.225 111.711C262.609 111.931 263.055 112.041 263.562 112.041C263.893 112.041 264.191 111.995 264.457 111.903C264.727 111.807 264.96 111.665 265.155 111.477C265.35 111.285 265.501 111.047 265.608 110.763L266.822 111.104C266.695 111.516 266.48 111.878 266.178 112.19C265.876 112.499 265.503 112.741 265.059 112.915C264.615 113.085 264.116 113.17 263.562 113.17ZM268.862 113V104.818H270.077V106.054H270.162C270.311 105.649 270.581 105.321 270.972 105.069C271.362 104.816 271.803 104.69 272.293 104.69C272.385 104.69 272.501 104.692 272.639 104.696C272.778 104.699 272.882 104.705 272.953 104.712V105.99C272.911 105.979 272.813 105.963 272.66 105.942C272.511 105.917 272.353 105.905 272.186 105.905C271.789 105.905 271.434 105.988 271.121 106.155C270.812 106.319 270.567 106.546 270.386 106.837C270.208 107.125 270.12 107.453 270.12 107.822V113H268.862ZM274.444 113V104.818H275.658V106.097H275.765C275.935 105.66 276.21 105.321 276.59 105.079C276.97 104.834 277.426 104.712 277.959 104.712C278.499 104.712 278.948 104.834 279.307 105.079C279.669 105.321 279.951 105.66 280.154 106.097H280.239C280.449 105.674 280.763 105.338 281.182 105.09C281.601 104.838 282.103 104.712 282.689 104.712C283.421 104.712 284.019 104.941 284.484 105.399C284.95 105.853 285.182 106.562 285.182 107.524V113H283.925V107.524C283.925 106.92 283.76 106.489 283.43 106.23C283.099 105.971 282.711 105.841 282.263 105.841C281.688 105.841 281.242 106.015 280.926 106.363C280.61 106.707 280.452 107.144 280.452 107.673V113H279.174V107.396C279.174 106.931 279.023 106.556 278.721 106.272C278.419 105.985 278.03 105.841 277.554 105.841C277.228 105.841 276.922 105.928 276.638 106.102C276.358 106.276 276.13 106.517 275.956 106.826C275.786 107.132 275.701 107.485 275.701 107.886V113H274.444ZM287.481 113V104.818H288.738V113H287.481ZM288.12 103.455C287.875 103.455 287.664 103.371 287.486 103.204C287.312 103.037 287.225 102.837 287.225 102.602C287.225 102.368 287.312 102.167 287.486 102C287.664 101.833 287.875 101.75 288.12 101.75C288.365 101.75 288.574 101.833 288.748 102C288.926 102.167 289.015 102.368 289.015 102.602C289.015 102.837 288.926 103.037 288.748 103.204C288.574 103.371 288.365 103.455 288.12 103.455ZM296.836 106.651L295.706 106.97C295.635 106.782 295.531 106.599 295.392 106.422C295.257 106.24 295.073 106.091 294.838 105.974C294.604 105.857 294.304 105.798 293.938 105.798C293.437 105.798 293.02 105.914 292.686 106.145C292.356 106.372 292.191 106.661 292.191 107.013C292.191 107.325 292.304 107.572 292.532 107.753C292.759 107.934 293.114 108.085 293.597 108.206L294.812 108.504C295.543 108.682 296.088 108.953 296.447 109.319C296.805 109.681 296.985 110.148 296.985 110.72C296.985 111.189 296.85 111.608 296.58 111.977C296.314 112.347 295.941 112.638 295.461 112.851C294.982 113.064 294.424 113.17 293.789 113.17C292.954 113.17 292.264 112.989 291.717 112.627C291.17 112.265 290.824 111.736 290.678 111.04L291.871 110.741C291.985 111.182 292.2 111.512 292.516 111.732C292.835 111.952 293.253 112.062 293.767 112.062C294.353 112.062 294.819 111.938 295.163 111.69C295.511 111.437 295.685 111.136 295.685 110.784C295.685 110.5 295.586 110.262 295.387 110.07C295.188 109.875 294.883 109.729 294.471 109.634L293.107 109.314C292.358 109.136 291.807 108.861 291.456 108.488C291.108 108.112 290.934 107.641 290.934 107.077C290.934 106.615 291.063 106.207 291.323 105.852C291.585 105.496 291.942 105.218 292.393 105.015C292.848 104.813 293.363 104.712 293.938 104.712C294.748 104.712 295.383 104.889 295.845 105.244C296.31 105.599 296.64 106.068 296.836 106.651Z" fill="black"/>
<path d="M205.321 394V383.091H209.007C209.863 383.091 210.563 383.245 211.106 383.554C211.653 383.86 212.058 384.273 212.32 384.795C212.583 385.317 212.714 385.9 212.714 386.543C212.714 387.185 212.583 387.77 212.32 388.295C212.061 388.821 211.66 389.24 211.116 389.552C210.573 389.861 209.877 390.016 209.028 390.016H206.386V388.844H208.986C209.572 388.844 210.042 388.743 210.397 388.54C210.752 388.338 211.01 388.064 211.17 387.72C211.333 387.372 211.415 386.979 211.415 386.543C211.415 386.106 211.333 385.715 211.17 385.371C211.01 385.026 210.751 384.756 210.392 384.561C210.033 384.362 209.558 384.263 208.964 384.263H206.642V394H205.321ZM215.929 389.078V394H214.672V383.091H215.929V387.097H216.036C216.227 386.674 216.515 386.338 216.899 386.09C217.286 385.838 217.801 385.712 218.443 385.712C219.001 385.712 219.489 385.824 219.908 386.047C220.327 386.267 220.652 386.607 220.883 387.065C221.117 387.519 221.235 388.098 221.235 388.801V394H219.977V388.886C219.977 388.237 219.809 387.734 219.471 387.379C219.138 387.02 218.674 386.841 218.081 386.841C217.669 386.841 217.3 386.928 216.973 387.102C216.65 387.276 216.394 387.53 216.206 387.864C216.021 388.197 215.929 388.602 215.929 389.078ZM224.791 383.091V394H223.534V383.091H224.791ZM230.418 394.17C229.679 394.17 229.031 393.995 228.474 393.643C227.92 393.292 227.486 392.8 227.174 392.168C226.865 391.536 226.71 390.797 226.71 389.952C226.71 389.099 226.865 388.355 227.174 387.72C227.486 387.084 227.92 386.591 228.474 386.239C229.031 385.887 229.679 385.712 230.418 385.712C231.156 385.712 231.803 385.887 232.357 386.239C232.914 386.591 233.347 387.084 233.656 387.72C233.969 388.355 234.125 389.099 234.125 389.952C234.125 390.797 233.969 391.536 233.656 392.168C233.347 392.8 232.914 393.292 232.357 393.643C231.803 393.995 231.156 394.17 230.418 394.17ZM230.418 393.041C230.979 393.041 231.441 392.897 231.803 392.61C232.165 392.322 232.433 391.944 232.607 391.475C232.781 391.006 232.868 390.499 232.868 389.952C232.868 389.405 232.781 388.895 232.607 388.423C232.433 387.951 232.165 387.569 231.803 387.278C231.441 386.987 230.979 386.841 230.418 386.841C229.857 386.841 229.395 386.987 229.033 387.278C228.671 387.569 228.403 387.951 228.229 388.423C228.055 388.895 227.968 389.405 227.968 389.952C227.968 390.499 228.055 391.006 228.229 391.475C228.403 391.944 228.671 392.322 229.033 392.61C229.395 392.897 229.857 393.041 230.418 393.041ZM239.475 394.17C238.686 394.17 238.006 393.996 237.434 393.648C236.866 393.297 236.428 392.807 236.119 392.178C235.813 391.546 235.661 390.811 235.661 389.973C235.661 389.135 235.813 388.396 236.119 387.757C236.428 387.114 236.857 386.614 237.408 386.255C237.962 385.893 238.608 385.712 239.347 385.712C239.773 385.712 240.194 385.783 240.609 385.925C241.025 386.067 241.403 386.298 241.744 386.617C242.085 386.933 242.356 387.352 242.559 387.874C242.761 388.396 242.862 389.039 242.862 389.803V390.335H236.555V389.249H241.584C241.584 388.787 241.492 388.375 241.307 388.013C241.126 387.651 240.867 387.365 240.529 387.155C240.195 386.946 239.801 386.841 239.347 386.841C238.846 386.841 238.413 386.965 238.047 387.214C237.685 387.459 237.406 387.778 237.211 388.173C237.015 388.567 236.918 388.989 236.918 389.44V390.165C236.918 390.783 237.024 391.306 237.237 391.736C237.454 392.162 237.754 392.487 238.138 392.711C238.521 392.931 238.967 393.041 239.475 393.041C239.805 393.041 240.103 392.995 240.369 392.903C240.639 392.807 240.872 392.665 241.067 392.477C241.263 392.285 241.413 392.047 241.52 391.763L242.734 392.104C242.607 392.516 242.392 392.878 242.09 393.19C241.788 393.499 241.415 393.741 240.971 393.915C240.527 394.085 240.028 394.17 239.475 394.17ZM244.775 394V385.818H245.989V387.097H246.096C246.266 386.66 246.541 386.321 246.921 386.079C247.301 385.834 247.758 385.712 248.29 385.712C248.83 385.712 249.279 385.834 249.638 386.079C250 386.321 250.282 386.66 250.485 387.097H250.57C250.78 386.674 251.094 386.338 251.513 386.09C251.932 385.838 252.434 385.712 253.02 385.712C253.752 385.712 254.35 385.941 254.815 386.399C255.281 386.853 255.513 387.562 255.513 388.524V394H254.256V388.524C254.256 387.92 254.091 387.489 253.761 387.23C253.43 386.971 253.042 386.841 252.594 386.841C252.019 386.841 251.573 387.015 251.257 387.363C250.941 387.707 250.783 388.144 250.783 388.673V394H249.505V388.396C249.505 387.931 249.354 387.556 249.052 387.272C248.75 386.985 248.361 386.841 247.885 386.841C247.559 386.841 247.253 386.928 246.969 387.102C246.689 387.276 246.461 387.517 246.287 387.826C246.117 388.132 246.032 388.485 246.032 388.886V394H244.775Z" fill="black"/>
<path d="M180.099 429.5H178.778C178.7 429.12 178.564 428.786 178.368 428.499C178.176 428.211 177.942 427.969 177.665 427.774C177.392 427.575 177.088 427.426 176.754 427.327C176.42 427.227 176.072 427.178 175.71 427.178C175.05 427.178 174.451 427.344 173.915 427.678C173.382 428.012 172.958 428.504 172.642 429.154C172.33 429.804 172.173 430.601 172.173 431.545C172.173 432.49 172.33 433.287 172.642 433.937C172.958 434.587 173.382 435.079 173.915 435.413C174.451 435.746 175.05 435.913 175.71 435.913C176.072 435.913 176.42 435.864 176.754 435.764C177.088 435.665 177.392 435.517 177.665 435.322C177.942 435.123 178.176 434.88 178.368 434.592C178.564 434.301 178.7 433.967 178.778 433.591H180.099C180 434.148 179.819 434.647 179.556 435.088C179.293 435.528 178.967 435.903 178.576 436.212C178.185 436.517 177.747 436.75 177.26 436.909C176.777 437.069 176.261 437.149 175.71 437.149C174.78 437.149 173.952 436.922 173.228 436.467C172.504 436.013 171.934 435.366 171.518 434.528C171.103 433.69 170.895 432.696 170.895 431.545C170.895 430.395 171.103 429.401 171.518 428.562C171.934 427.724 172.504 427.078 173.228 426.624C173.952 426.169 174.78 425.942 175.71 425.942C176.261 425.942 176.777 426.022 177.26 426.181C177.747 426.341 178.185 426.576 178.576 426.885C178.967 427.19 179.293 427.563 179.556 428.003C179.819 428.44 180 428.939 180.099 429.5ZM184.471 437.192C183.953 437.192 183.482 437.094 183.06 436.899C182.637 436.7 182.302 436.414 182.053 436.041C181.804 435.665 181.68 435.21 181.68 434.678C181.68 434.209 181.772 433.829 181.957 433.538C182.142 433.243 182.389 433.012 182.698 432.845C183.006 432.678 183.347 432.554 183.72 432.472C184.097 432.387 184.475 432.32 184.855 432.27C185.352 432.206 185.755 432.158 186.064 432.126C186.377 432.091 186.604 432.032 186.746 431.95C186.891 431.869 186.964 431.727 186.964 431.524V431.482C186.964 430.956 186.82 430.548 186.533 430.256C186.249 429.965 185.817 429.82 185.238 429.82C184.638 429.82 184.168 429.951 183.827 430.214C183.486 430.477 183.246 430.757 183.108 431.055L181.915 430.629C182.128 430.132 182.412 429.745 182.767 429.468C183.125 429.187 183.516 428.992 183.939 428.882C184.365 428.768 184.784 428.712 185.196 428.712C185.459 428.712 185.76 428.744 186.101 428.808C186.446 428.868 186.778 428.994 187.097 429.186C187.421 429.377 187.689 429.667 187.902 430.054C188.115 430.441 188.221 430.96 188.221 431.609V437H186.964V435.892H186.9C186.815 436.07 186.673 436.26 186.474 436.462C186.275 436.664 186.011 436.837 185.68 436.979C185.35 437.121 184.947 437.192 184.471 437.192ZM184.663 436.062C185.16 436.062 185.579 435.965 185.92 435.77C186.265 435.574 186.524 435.322 186.698 435.013C186.875 434.704 186.964 434.379 186.964 434.038V432.888C186.911 432.952 186.794 433.01 186.613 433.064C186.435 433.113 186.229 433.158 185.995 433.197C185.764 433.232 185.538 433.264 185.318 433.293C185.102 433.317 184.926 433.339 184.791 433.357C184.464 433.399 184.159 433.468 183.875 433.564C183.594 433.657 183.367 433.797 183.193 433.985C183.022 434.17 182.937 434.422 182.937 434.741C182.937 435.178 183.099 435.509 183.422 435.732C183.749 435.952 184.162 436.062 184.663 436.062ZM190.516 437V428.818H191.73V430.097H191.837C192.007 429.66 192.282 429.321 192.662 429.079C193.042 428.834 193.499 428.712 194.031 428.712C194.571 428.712 195.02 428.834 195.379 429.079C195.741 429.321 196.024 429.66 196.226 430.097H196.311C196.521 429.674 196.835 429.338 197.254 429.09C197.673 428.838 198.176 428.712 198.762 428.712C199.493 428.712 200.091 428.941 200.557 429.399C201.022 429.853 201.254 430.562 201.254 431.524V437H199.997V431.524C199.997 430.92 199.832 430.489 199.502 430.23C199.172 429.971 198.783 429.841 198.335 429.841C197.76 429.841 197.314 430.015 196.998 430.363C196.682 430.707 196.524 431.144 196.524 431.673V437H195.246V431.396C195.246 430.931 195.095 430.556 194.793 430.272C194.491 429.985 194.102 429.841 193.627 429.841C193.3 429.841 192.994 429.928 192.71 430.102C192.43 430.276 192.203 430.517 192.029 430.826C191.858 431.132 191.773 431.485 191.773 431.886V437H190.516ZM203.723 437V426.091H204.98V430.118H205.087C205.179 429.976 205.307 429.795 205.471 429.575C205.637 429.351 205.875 429.152 206.184 428.978C206.497 428.8 206.919 428.712 207.452 428.712C208.141 428.712 208.748 428.884 209.274 429.228C209.799 429.573 210.21 430.061 210.504 430.693C210.799 431.325 210.946 432.071 210.946 432.93C210.946 433.797 210.799 434.548 210.504 435.184C210.21 435.816 209.801 436.306 209.279 436.654C208.757 436.998 208.155 437.17 207.473 437.17C206.948 437.17 206.527 437.083 206.211 436.909C205.895 436.732 205.652 436.531 205.481 436.308C205.311 436.08 205.179 435.892 205.087 435.743H204.938V437H203.723ZM204.959 432.909C204.959 433.527 205.05 434.072 205.231 434.544C205.412 435.013 205.676 435.381 206.025 435.647C206.373 435.91 206.799 436.041 207.303 436.041C207.828 436.041 208.267 435.903 208.619 435.626C208.974 435.345 209.24 434.969 209.418 434.496C209.599 434.021 209.689 433.491 209.689 432.909C209.689 432.334 209.6 431.815 209.423 431.354C209.249 430.888 208.984 430.521 208.629 430.251C208.278 429.978 207.836 429.841 207.303 429.841C206.792 429.841 206.362 429.971 206.014 430.23C205.666 430.485 205.403 430.844 205.225 431.306C205.048 431.764 204.959 432.298 204.959 432.909ZM212.869 437V428.818H214.126V437H212.869ZM213.509 427.455C213.263 427.455 213.052 427.371 212.875 427.204C212.701 427.037 212.614 426.837 212.614 426.602C212.614 426.368 212.701 426.167 212.875 426C213.052 425.833 213.263 425.75 213.509 425.75C213.754 425.75 213.963 425.833 214.137 426C214.315 426.167 214.403 426.368 214.403 426.602C214.403 426.837 214.315 427.037 214.137 427.204C213.963 427.371 213.754 427.455 213.509 427.455ZM221.585 433.655V428.818H222.842V437H221.585V435.615H221.5C221.308 436.031 221.01 436.384 220.605 436.675C220.2 436.963 219.689 437.107 219.071 437.107C218.56 437.107 218.105 436.995 217.707 436.771C217.31 436.544 216.997 436.203 216.77 435.748C216.543 435.29 216.429 434.713 216.429 434.017V428.818H217.686V433.932C217.686 434.528 217.853 435.004 218.187 435.359C218.524 435.714 218.954 435.892 219.476 435.892C219.788 435.892 220.106 435.812 220.429 435.652C220.756 435.493 221.029 435.248 221.25 434.917C221.473 434.587 221.585 434.166 221.585 433.655ZM225.145 437V428.818H226.359V430.097H226.466C226.636 429.66 226.911 429.321 227.291 429.079C227.671 428.834 228.128 428.712 228.66 428.712C229.2 428.712 229.649 428.834 230.008 429.079C230.37 429.321 230.653 429.66 230.855 430.097H230.94C231.15 429.674 231.464 429.338 231.883 429.09C232.302 428.838 232.805 428.712 233.39 428.712C234.122 428.712 234.72 428.941 235.186 429.399C235.651 429.853 235.883 430.562 235.883 431.524V437H234.626V431.524C234.626 430.92 234.461 430.489 234.131 430.23C233.801 429.971 233.412 429.841 232.964 429.841C232.389 429.841 231.943 430.015 231.627 430.363C231.311 430.707 231.153 431.144 231.153 431.673V437H229.875V431.396C229.875 430.931 229.724 430.556 229.422 430.272C229.12 429.985 228.731 429.841 228.256 429.841C227.929 429.841 227.623 429.928 227.339 430.102C227.059 430.276 226.831 430.517 226.657 430.826C226.487 431.132 226.402 431.485 226.402 431.886V437H225.145Z" fill="black"/>
<path d="M117.96 426.091L120.773 430.629H120.858L123.67 426.091H125.226L121.795 431.545L125.226 437H123.67L120.858 432.547H120.773L117.96 437H116.405L119.92 431.545L116.405 426.091H117.96ZM127.584 440.068C127.371 440.068 127.181 440.05 127.014 440.015C126.847 439.983 126.732 439.951 126.668 439.919L126.988 438.811C127.293 438.889 127.563 438.918 127.797 438.896C128.032 438.875 128.239 438.77 128.421 438.582C128.605 438.397 128.774 438.097 128.927 437.682L129.161 437.043L126.135 428.818H127.499L129.758 435.338H129.843L132.101 428.818H133.465L129.992 438.193C129.836 438.616 129.642 438.966 129.411 439.243C129.18 439.523 128.912 439.731 128.607 439.866C128.305 440.001 127.964 440.068 127.584 440.068ZM136.381 426.091V437H135.124V426.091H136.381ZM142.114 437.17C141.326 437.17 140.646 436.996 140.074 436.648C139.506 436.297 139.067 435.807 138.758 435.178C138.453 434.546 138.3 433.811 138.3 432.973C138.3 432.135 138.453 431.396 138.758 430.757C139.067 430.114 139.497 429.614 140.047 429.255C140.601 428.893 141.248 428.712 141.986 428.712C142.412 428.712 142.833 428.783 143.249 428.925C143.664 429.067 144.042 429.298 144.383 429.617C144.724 429.933 144.996 430.352 145.198 430.874C145.401 431.396 145.502 432.039 145.502 432.803V433.335H139.195V432.249H144.224C144.224 431.787 144.131 431.375 143.947 431.013C143.765 430.651 143.506 430.365 143.169 430.155C142.835 429.946 142.441 429.841 141.986 429.841C141.486 429.841 141.052 429.965 140.687 430.214C140.324 430.459 140.046 430.778 139.85 431.173C139.655 431.567 139.557 431.989 139.557 432.44V433.165C139.557 433.783 139.664 434.306 139.877 434.736C140.094 435.162 140.394 435.487 140.777 435.711C141.161 435.931 141.606 436.041 142.114 436.041C142.444 436.041 142.743 435.995 143.009 435.903C143.279 435.807 143.512 435.665 143.707 435.477C143.902 435.285 144.053 435.047 144.16 434.763L145.374 435.104C145.246 435.516 145.031 435.878 144.73 436.19C144.428 436.499 144.055 436.741 143.611 436.915C143.167 437.085 142.668 437.17 142.114 437.17ZM147.414 437V428.818H148.629V430.097H148.735C148.906 429.66 149.181 429.321 149.561 429.079C149.941 428.834 150.397 428.712 150.93 428.712C151.47 428.712 151.919 428.834 152.278 429.079C152.64 429.321 152.922 429.66 153.124 430.097H153.21C153.419 429.674 153.733 429.338 154.153 429.09C154.572 428.838 155.074 428.712 155.66 428.712C156.392 428.712 156.99 428.941 157.455 429.399C157.92 429.853 158.153 430.562 158.153 431.524V437H156.896V431.524C156.896 430.92 156.731 430.489 156.4 430.23C156.07 429.971 155.681 429.841 155.234 429.841C154.659 429.841 154.213 430.015 153.897 430.363C153.581 430.707 153.423 431.144 153.423 431.673V437H152.144V431.396C152.144 430.931 151.993 430.556 151.692 430.272C151.39 429.985 151.001 429.841 150.525 429.841C150.198 429.841 149.893 429.928 149.609 430.102C149.328 430.276 149.101 430.517 148.927 430.826C148.757 431.132 148.671 431.485 148.671 431.886V437H147.414Z" fill="black"/>
<path d="M229.321 306V295.091H235.862V296.263H230.642V299.949H235.372V301.121H230.642V306H229.321ZM237.954 306V297.818H239.211V306H237.954ZM238.593 296.455C238.348 296.455 238.137 296.371 237.96 296.204C237.786 296.037 237.699 295.837 237.699 295.602C237.699 295.368 237.786 295.167 237.96 295C238.137 294.833 238.348 294.75 238.593 294.75C238.839 294.75 239.048 294.833 239.222 295C239.4 295.167 239.488 295.368 239.488 295.602C239.488 295.837 239.4 296.037 239.222 296.204C239.048 296.371 238.839 296.455 238.593 296.455ZM241.684 306V295.091H242.941V299.118H243.048C243.14 298.976 243.268 298.795 243.431 298.575C243.598 298.351 243.836 298.152 244.145 297.978C244.458 297.8 244.88 297.712 245.413 297.712C246.102 297.712 246.709 297.884 247.235 298.228C247.76 298.573 248.17 299.061 248.465 299.693C248.76 300.325 248.907 301.071 248.907 301.93C248.907 302.797 248.76 303.548 248.465 304.184C248.17 304.816 247.762 305.306 247.24 305.654C246.718 305.998 246.116 306.17 245.434 306.17C244.909 306.17 244.488 306.083 244.172 305.909C243.856 305.732 243.613 305.531 243.442 305.308C243.272 305.08 243.14 304.892 243.048 304.743H242.899V306H241.684ZM242.92 301.909C242.92 302.527 243.011 303.072 243.192 303.544C243.373 304.013 243.637 304.381 243.985 304.647C244.333 304.91 244.76 305.041 245.264 305.041C245.789 305.041 246.228 304.903 246.58 304.626C246.935 304.345 247.201 303.969 247.379 303.496C247.56 303.021 247.65 302.491 247.65 301.909C247.65 301.334 247.561 300.815 247.384 300.354C247.21 299.888 246.945 299.521 246.59 299.251C246.239 298.978 245.797 298.841 245.264 298.841C244.752 298.841 244.323 298.971 243.975 299.23C243.627 299.485 243.364 299.844 243.186 300.306C243.009 300.764 242.92 301.298 242.92 301.909ZM250.83 306V297.818H252.045V299.054H252.13C252.279 298.649 252.549 298.321 252.94 298.069C253.33 297.816 253.771 297.69 254.261 297.69C254.353 297.69 254.468 297.692 254.607 297.696C254.745 297.699 254.85 297.705 254.921 297.712V298.99C254.879 298.979 254.781 298.963 254.628 298.942C254.479 298.917 254.321 298.905 254.154 298.905C253.756 298.905 253.401 298.988 253.089 299.155C252.78 299.319 252.535 299.546 252.354 299.837C252.176 300.125 252.087 300.453 252.087 300.822V306H250.83ZM259.593 306.17C258.804 306.17 258.124 305.996 257.553 305.648C256.984 305.297 256.546 304.807 256.237 304.178C255.931 303.546 255.779 302.811 255.779 301.973C255.779 301.135 255.931 300.396 256.237 299.757C256.546 299.114 256.975 298.614 257.526 298.255C258.08 297.893 258.726 297.712 259.465 297.712C259.891 297.712 260.312 297.783 260.727 297.925C261.143 298.067 261.521 298.298 261.862 298.617C262.203 298.933 262.474 299.352 262.677 299.874C262.879 300.396 262.98 301.039 262.98 301.803V302.335H256.674V301.249H261.702C261.702 300.787 261.61 300.375 261.425 300.013C261.244 299.651 260.985 299.365 260.647 299.155C260.314 298.946 259.919 298.841 259.465 298.841C258.964 298.841 258.531 298.965 258.165 299.214C257.803 299.459 257.524 299.778 257.329 300.173C257.134 300.567 257.036 300.989 257.036 301.44V302.165C257.036 302.783 257.142 303.306 257.355 303.736C257.572 304.162 257.872 304.487 258.256 304.711C258.639 304.931 259.085 305.041 259.593 305.041C259.923 305.041 260.221 304.995 260.488 304.903C260.757 304.807 260.99 304.665 261.185 304.477C261.381 304.285 261.532 304.047 261.638 303.763L262.853 304.104C262.725 304.516 262.51 304.878 262.208 305.19C261.906 305.499 261.533 305.741 261.089 305.915C260.646 306.085 260.147 306.17 259.593 306.17ZM278.06 298.5H276.739C276.661 298.12 276.525 297.786 276.329 297.499C276.137 297.211 275.903 296.969 275.626 296.774C275.353 296.575 275.049 296.426 274.715 296.327C274.381 296.227 274.033 296.178 273.671 296.178C273.011 296.178 272.412 296.344 271.876 296.678C271.343 297.012 270.919 297.504 270.603 298.154C270.29 298.804 270.134 299.601 270.134 300.545C270.134 301.49 270.29 302.287 270.603 302.937C270.919 303.587 271.343 304.079 271.876 304.413C272.412 304.746 273.011 304.913 273.671 304.913C274.033 304.913 274.381 304.864 274.715 304.764C275.049 304.665 275.353 304.517 275.626 304.322C275.903 304.123 276.137 303.88 276.329 303.592C276.525 303.301 276.661 302.967 276.739 302.591H278.06C277.961 303.148 277.78 303.647 277.517 304.088C277.254 304.528 276.928 304.903 276.537 305.212C276.146 305.517 275.708 305.75 275.221 305.909C274.738 306.069 274.222 306.149 273.671 306.149C272.741 306.149 271.913 305.922 271.189 305.467C270.464 305.013 269.895 304.366 269.479 303.528C269.064 302.69 268.856 301.696 268.856 300.545C268.856 299.395 269.064 298.401 269.479 297.562C269.895 296.724 270.464 296.078 271.189 295.624C271.913 295.169 272.741 294.942 273.671 294.942C274.222 294.942 274.738 295.022 275.221 295.181C275.708 295.341 276.146 295.576 276.537 295.885C276.928 296.19 277.254 296.563 277.517 297.003C277.78 297.44 277.961 297.939 278.06 298.5ZM282.432 306.192C281.914 306.192 281.443 306.094 281.021 305.899C280.598 305.7 280.263 305.414 280.014 305.041C279.765 304.665 279.641 304.21 279.641 303.678C279.641 303.209 279.733 302.829 279.918 302.538C280.103 302.243 280.35 302.012 280.658 301.845C280.967 301.678 281.308 301.554 281.681 301.472C282.058 301.387 282.436 301.32 282.816 301.27C283.313 301.206 283.716 301.158 284.025 301.126C284.337 301.091 284.565 301.032 284.707 300.95C284.852 300.869 284.925 300.727 284.925 300.524V300.482C284.925 299.956 284.781 299.548 284.494 299.256C284.21 298.965 283.778 298.82 283.199 298.82C282.599 298.82 282.129 298.951 281.788 299.214C281.447 299.477 281.207 299.757 281.069 300.055L279.875 299.629C280.089 299.132 280.373 298.745 280.728 298.468C281.086 298.187 281.477 297.992 281.9 297.882C282.326 297.768 282.745 297.712 283.157 297.712C283.419 297.712 283.721 297.744 284.062 297.808C284.407 297.868 284.739 297.994 285.058 298.186C285.381 298.377 285.65 298.667 285.863 299.054C286.076 299.441 286.182 299.96 286.182 300.609V306H284.925V304.892H284.861C284.776 305.07 284.634 305.26 284.435 305.462C284.236 305.664 283.972 305.837 283.641 305.979C283.311 306.121 282.908 306.192 282.432 306.192ZM282.624 305.062C283.121 305.062 283.54 304.965 283.881 304.77C284.226 304.574 284.485 304.322 284.659 304.013C284.836 303.704 284.925 303.379 284.925 303.038V301.888C284.872 301.952 284.755 302.01 284.574 302.064C284.396 302.113 284.19 302.158 283.956 302.197C283.725 302.232 283.499 302.264 283.279 302.293C283.063 302.317 282.887 302.339 282.752 302.357C282.425 302.399 282.12 302.468 281.836 302.564C281.555 302.657 281.328 302.797 281.154 302.985C280.983 303.17 280.898 303.422 280.898 303.741C280.898 304.178 281.06 304.509 281.383 304.732C281.71 304.952 282.123 305.062 282.624 305.062ZM288.477 309.068V297.818H289.691V299.118H289.84C289.933 298.976 290.061 298.795 290.224 298.575C290.391 298.351 290.629 298.152 290.938 297.978C291.25 297.8 291.673 297.712 292.205 297.712C292.894 297.712 293.502 297.884 294.027 298.228C294.553 298.573 294.963 299.061 295.258 299.693C295.552 300.325 295.7 301.071 295.7 301.93C295.7 302.797 295.552 303.548 295.258 304.184C294.963 304.816 294.555 305.306 294.032 305.654C293.51 305.998 292.909 306.17 292.227 306.17C291.701 306.17 291.28 306.083 290.964 305.909C290.648 305.732 290.405 305.531 290.235 305.308C290.064 305.08 289.933 304.892 289.84 304.743H289.734V309.068H288.477ZM289.713 301.909C289.713 302.527 289.803 303.072 289.984 303.544C290.165 304.013 290.43 304.381 290.778 304.647C291.126 304.91 291.552 305.041 292.056 305.041C292.582 305.041 293.02 304.903 293.372 304.626C293.727 304.345 293.993 303.969 294.171 303.496C294.352 303.021 294.443 302.491 294.443 301.909C294.443 301.334 294.354 300.815 294.176 300.354C294.002 299.888 293.738 299.521 293.383 299.251C293.031 298.978 292.589 298.841 292.056 298.841C291.545 298.841 291.115 298.971 290.767 299.23C290.419 299.485 290.156 299.844 289.979 300.306C289.801 300.764 289.713 301.298 289.713 301.909Z" fill="black"/>
<path d="M173.672 189.697C174.056 190.43 174.963 190.713 175.697 190.328L187.652 184.059C188.386 183.674 188.669 182.768 188.284 182.034C187.9 181.3 186.993 181.017 186.259 181.402L175.632 186.975L170.059 176.348C169.674 175.614 168.768 175.331 168.034 175.716C167.3 176.1 167.017 177.007 167.402 177.741L173.672 189.697ZM212.568 63.5532L173.568 188.553L176.432 189.447L215.432 64.4468L212.568 63.5532Z" fill="black"/>
<path d="M213.609 215.561C213.918 216.329 214.792 216.701 215.561 216.391L228.082 211.345C228.851 211.036 229.222 210.162 228.913 209.393C228.603 208.625 227.729 208.253 226.961 208.563L215.831 213.048L211.345 201.918C211.036 201.149 210.162 200.778 209.393 201.087C208.625 201.397 208.253 202.271 208.563 203.039L213.609 215.561ZM253.62 120.413L213.62 214.413L216.38 215.587L256.38 121.587L253.62 120.413Z" fill="black"/>
<path d="M125 175L111 125" stroke="black" stroke-width="3"/>
<path d="M133 171L119 121" stroke="black" stroke-width="3"/>
<path d="M109 292L141 250" stroke="black" stroke-width="3"/>
<path d="M117 298L147 256" stroke="black" stroke-width="3"/>
<line x1="153.046" y1="290.502" x2="228.046" y2="297.502" stroke="black"/>
<line x1="130.402" y1="269.703" x2="209.402" y2="376.703" stroke="black"/>
<line x1="103.492" y1="255.909" x2="132.492" y2="412.909" stroke="black"/>
<line x1="123.467" y1="272.822" x2="180.467" y2="422.822" stroke="black"/>
</g>
<defs>
<clipPath id="clip0_1_3">
<rect width="332" height="453" fill="white"/>
</clipPath>
</defs>
</svg>
